# xmcd CD database file
#
# Track frame offsets:
#	182
#	15947
#	28795
#	41702
#	54800
#	67922
#	81510
#	96462
#	110327
#	122077
#	135440
#	148077
#	160300
#	173350
#	185785
#	200590
#	213760
#	226240
#	239807
#	252405
#
# Disc length: 3519 seconds
#
# Revision: 0
# Processed by: cddbd v1.5PL3 Copyright (c) Steve Scherf et al.
# Submitted via: CDex 1.50beta10
#
DISCID=170dbd14
DTITLE=Julia Lee - Gotta Gimme What'cha Got
DYEAR=1997
DGENRE=Blues
TTITLE0=He's Tall Dark And Handsome
TTITLE1=Won't You Come Over To My House
TTITLE2=Come On Over To My House
TTITLE3=Trouble In Mind
TTITLE4=If It's Good
TTITLE5=Show Me Missouri Blues
TTITLE6=Lotus Blossom
TTITLE7=Dream Lucky Blues
TTITLE8=Julia's Blues
TTITLE9=Lies
TTITLE10=Gotta Gimme What'cha Got
TTITLE11=When A Woman Loves A Man
TTITLE12=Oh Marie
TTITLE13=I'll Get Along Somehow
TTITLE14=A Porter's Love Song To A Chambermaid
TTITLE15=Have You Ever Been Lonely
TTITLE16=Since I've Been With You
TTITLE17=Out In The Cold Again
TTITLE18=Young Girl's Blues
TTITLE19=On My Way Out
EXTD=YEAR: 1997
EXTT0=
EXTT1=
EXTT2=
EXTT3=
EXTT4=
EXTT5=
EXTT6=
EXTT7=
EXTT8=
EXTT9=
EXTT10=
EXTT11=
EXTT12=
EXTT13=
EXTT14=
EXTT15=
EXTT16=
EXTT17=
EXTT18=
EXTT19=
PLAYORDER=
